<?xml version="1.0" encoding="UTF-8" standalone="no"?>
<svg width="100px" height="100px" viewBox="0 0 100 100" version="1.1" xmlns="http://www.w3.org/2000/svg" xmlns:xlink="http://www.w3.org/1999/xlink">
    <g stroke="none" stroke-width="1" fill="none" fill-rule="evenodd">
        <path d="M100,88 C100,94.6 94.6,100 88,100 L12,100 C5.4,100 0,94.6 0,88 L0,12 C0,5.4 5.4,0 12,0 L88,0 C94.6,0 100,5.4 100,12 L100,88 L100,88 Z" id="Shape" fill="#7f8de1"></path>
        <path d="m79 51.1c0.1-2.1-1.4-2.7-2-2.7h-21.8c-1.9 0-2.2 2-2.2 2.2v23.4h26v-22.9z m-15 16.8c0 1.1-0.9 2-2 2h-2c-1.1 0-2-0.9-2-2v-2c0-1.1 0.9-2 2-2h2c1.1 0 2 0.9 2 2v2z m0-10.2c0 1.1-0.9 2-2 2h-2c-1.1 0-2-0.9-2-2v-2c0-1.1 0.9-2 2-2h2c1.1 0 2 0.9 2 2v2z m10 10.2c0 1.1-0.9 2-2 2h-2c-1.1 0-2-0.9-2-2v-2c0-1.1 0.9-2 2-2h2c1.1 0 2 0.9 2 2v2z m0-10.2c0 1.1-0.9 2-2 2h-2c-1.1 0-2-0.9-2-2v-2c0-1.1 0.9-2 2-2h2c1.1 0 2 0.9 2 2v2z m-15-17.4v-11.6c0.1-2.1-1.4-2.7-2-2.7h-33.8c-1.9 0-2.2 2-2.2 2.2v45.8h26v-29.3s0-2.4 2.2-2.4h7.9s1.9-1.2 1.9-2z m-27 26.6c0 1.1-0.9 2-2 2h-2c-1.1 0-2-0.9-2-2v-2c0-1.1 0.9-2 2-2h2c1.1 0 2 0.9 2 2v2z m0-10.3c0 1.1-0.9 2-2 2h-2c-1.1 0-2-0.9-2-2v-2c0-1.1 0.9-2 2-2h2c1.1 0 2 0.9 2 2v2z m0-10.2c0 1.1-0.9 2-2 2h-2c-1.1 0-2-0.9-2-2v-2c0-1.1 0.9-2 2-2h2c1.1 0 2 0.9 2 2v2z m0-10.2c0 1.1-0.9 2-2 2h-2c-1.1 0-2-0.9-2-2v-2c0-1.1 0.9-2 2-2h2c1.1 0 2 0.9 2 2v2z m11 30.7c0 1.1-0.9 2-2 2h-2c-1.1 0-2-0.9-2-2v-2c0-1.1 0.9-2 2-2h2c1.1 0 2 0.9 2 2v2z m0-10.3c0 1.1-0.9 2-2 2h-2c-1.1 0-2-0.9-2-2v-2c0-1.1 0.9-2 2-2h2c1.1 0 2 0.9 2 2v2z m0-10.2c0 1.1-0.9 2-2 2h-2c-1.1 0-2-0.9-2-2v-2c0-1.1 0.9-2 2-2h2c1.1 0 2 0.9 2 2v2z m0-10.2c0 1.1-0.9 2-2 2h-2c-1.1 0-2-0.9-2-2v-2c0-1.1 0.9-2 2-2h2c1.1 0 2 0.9 2 2v2z m11 0c0 1.1-0.9 2-2 2h-2c-1.1 0-2-0.9-2-2v-2c0-1.1 0.9-2 2-2h2c1.1 0 2 0.9 2 2v2z" fill="#fff"></path>
    </g>
</svg>