<?xml version="1.0" encoding="UTF-8" standalone="no"?>
<svg width="120px" height="120px" viewBox="0 0 120 120" version="1.1" xmlns="http://www.w3.org/2000/svg" xmlns:xlink="http://www.w3.org/1999/xlink">
    <g stroke="none" stroke-width="1" fill="none" fill-rule="evenodd">
        <path d="M120,108 C120,114.6 114.6,120 108,120 L12,120 C5.4,120 0,114.6 0,108 L0,12 C0,5.4 5.4,0 12,0 L108,0 C114.6,0 120,5.4 120,12 L120,108 L120,108 Z" id="Shape" fill="#F47E8C"></path>
        <path d="M44.4776119,36.1111111 L75.5223881,36.1111111 C77.3134328,36.1111111 78.5074627,35 78.5074627,33.3333333 L78.5074627,27.7777778 C78.5074627,23.3333333 74.9253731,20 70.1492537,20 L49.8507463,20 C45.0746269,20 41.4925373,23.3333333 41.4925373,27.7777778 L41.4925373,33.3333333 C41.4925373,35 42.6865672,36.1111111 44.4776119,36.1111111 L44.4776119,36.1111111 Z M91.641791,26.6666667 L88.6567164,26.6666667 C88.0597015,26.6666667 87.4626866,27.2222222 87.4626866,27.7777778 L87.4626866,33.3333333 C87.4626866,39.4444444 82.0895522,43.8888889 75.5223881,43.8888889 L44.4776119,43.8888889 C37.9104478,43.8888889 32.5373134,39.4444444 32.5373134,33.3333333 L32.5373134,27.7777778 C32.5373134,27.2222222 31.9402985,26.6666667 31.3432836,26.6666667 L28.358209,26.6666667 C23.5820896,26.6666667 20,30 20,34.4444444 L20,92.2222222 C20,96.6666667 23.5820896,100 28.358209,100 L91.641791,100 C96.4179104,100 100,96.6666667 100,92.2222222 L100,34.4444444 C100,30 96.4179104,26.6666667 91.641791,26.6666667 Z M50,71.9999433 C50,69.7908356 51.7852456,68 53.9901786,68 L82.0098214,68 C84.2135362,68 86,69.7996535 86,71.9999433 L86,73.0000567 C86,75.2091644 84.2147544,77 82.0098214,77 L53.9901786,77 C51.7864638,77 50,75.2003465 50,73.0000567 L50,71.9999433 Z M35,71.9999433 C35,69.7908356 36.7996535,68 38.9999433,68 L40.0000567,68 C42.2091644,68 44,69.7996535 44,71.9999433 L44,73.0000567 C44,75.2091644 42.2003465,77 40.0000567,77 L38.9999433,77 C36.7908356,77 35,75.2003465 35,73.0000567 L35,71.9999433 Z M50,55.9999433 C50,53.7908356 51.7852456,52 53.9901786,52 L82.0098214,52 C84.2135362,52 86,53.7996535 86,55.9999433 L86,57.0000567 C86,59.2091644 84.2147544,61 82.0098214,61 L53.9901786,61 C51.7864638,61 50,59.2003465 50,57.0000567 L50,55.9999433 Z M35,55.9999433 C35,53.7908356 36.7996535,52 38.9999433,52 L40.0000567,52 C42.2091644,52 44,53.7996535 44,55.9999433 L44,57.0000567 C44,59.2091644 42.2003465,61 40.0000567,61 L38.9999433,61 C36.7908356,61 35,59.2003465 35,57.0000567 L35,55.9999433 Z M50,87.9999433 C50,85.7908356 51.7852456,84 53.9901786,84 L82.0098214,84 C84.2135362,84 86,85.7996535 86,87.9999433 L86,89.0000567 C86,91.2091644 84.2147544,93 82.0098214,93 L53.9901786,93 C51.7864638,93 50,91.2003465 50,89.0000567 L50,87.9999433 Z M35,87.9999433 C35,85.7908356 36.7996535,84 38.9999433,84 L40.0000567,84 C42.2091644,84 44,85.7996535 44,87.9999433 L44,89.0000567 C44,91.2091644 42.2003465,93 40.0000567,93 L38.9999433,93 C36.7908356,93 35,91.2003465 35,89.0000567 L35,87.9999433 Z" fill="#FFFFFF"></path>
    </g>
</svg>