<?xml version="1.0" encoding="UTF-8" standalone="no"?>
<svg width="100px" height="100px" viewBox="0 0 100 100" version="1.1" xmlns="http://www.w3.org/2000/svg" xmlns:xlink="http://www.w3.org/1999/xlink">
    <g stroke="none" stroke-width="1" fill="none" fill-rule="evenodd">
        <path d="M100,88 C100,94.6 94.6,100 88,100 L12,100 C5.4,100 0,94.6 0,88 L0,12 C0,5.4 5.4,0 12,0 L88,0 C94.6,0 100,5.4 100,12 L100,88 L100,88 Z" id="Shape" fill="#4bc076"></path>
        <path d="m74 27h-48c-3.3 0-6 2.7-6 6v34c0 3.3 2.7 6 6 6h48c3.3 0 6-2.7 6-6v-34c0-3.3-2.7-6-6-6z m-5 27c0 0.9-1 1.3-1.7 0.7l-4.6-4.6-10.6 9.1c-1.2 1.2-3.1 1.2-4.2 0l-6.4-7.3-11.4 10c-0.4 0.4-1 0.4-1.4 0l-0.5-0.5c-0.4-0.4-0.4-1 0-1.4l11.2-15.3c1.2-1.2 3.1-1.2 4.2 0l6.4 6.4 6.5-7.5-4.2-3.8c-0.6-0.6-0.2-1.8 0.7-1.8h14c1.1 0 1.9 1 1.9 2.1v13.9z" fill="#fff"/>
    </g>
</svg>