<?xml version="1.0" encoding="UTF-8" standalone="no"?>
<svg width="120px" height="120px" viewBox="0 0 120 120" version="1.1" xmlns="http://www.w3.org/2000/svg" xmlns:xlink="http://www.w3.org/1999/xlink">
    <g stroke="none" stroke-width="1" fill="none" fill-rule="evenodd">
        <path d="M120,108 C120,114.6 114.6,120 108,120 L12,120 C5.4,120 0,114.6 0,108 L0,12 C0,5.4 5.4,0 12,0 L108,0 C114.6,0 120,5.4 120,12 L120,108 L120,108 Z" id="Shape" fill="#2A739E"></path>
        <path d="M20,25.9966343 C20,22.6847846 22.6846188,20 25.9966343,20 L94.0033657,20 C97.3152154,20 100,22.6846188 100,25.9966343 L100,94.0033657 C100,97.3152154 97.3153812,100 94.0033657,100 L25.9966343,100 C22.6847846,100 20,97.3153812 20,94.0033657 L20,25.9966343 Z M51,39.0023695 C51,36.7919219 52.7852456,35 54.9901786,35 L83.0098214,35 C85.2135362,35 87,36.7918218 87,39.0023695 L87,41.9976305 C87,44.2080781 85.2147544,46 83.0098214,46 L54.9901786,46 C52.7864638,46 51,44.2081782 51,41.9976305 L51,39.0023695 Z M51,58.0023695 C51,55.7919219 52.7852456,54 54.9901786,54 L83.0098214,54 C85.2135362,54 87,55.7918218 87,58.0023695 L87,60.9976305 C87,63.2080781 85.2147544,65 83.0098214,65 L54.9901786,65 C52.7864638,65 51,63.2081782 51,60.9976305 L51,58.0023695 Z M51,77.0023695 C51,74.7919219 52.7852456,73 54.9901786,73 L83.0098214,73 C85.2135362,73 87,74.7918218 87,77.0023695 L87,79.9976305 C87,82.2080781 85.2147544,84 83.0098214,84 L54.9901786,84 C52.7864638,84 51,82.2081782 51,79.9976305 L51,77.0023695 Z M34,39.0023695 C34,36.7919219 35.7918218,35 38.0023695,35 L40.9976305,35 C43.2080781,35 45,36.7918218 45,39.0023695 L45,41.9976305 C45,44.2080781 43.2081782,46 40.9976305,46 L38.0023695,46 C35.7919219,46 34,44.2081782 34,41.9976305 L34,39.0023695 Z M34,58.0023695 C34,55.7919219 35.7918218,54 38.0023695,54 L40.9976305,54 C43.2080781,54 45,55.7918218 45,58.0023695 L45,60.9976305 C45,63.2080781 43.2081782,65 40.9976305,65 L38.0023695,65 C35.7919219,65 34,63.2081782 34,60.9976305 L34,58.0023695 Z M34,77.0023695 C34,74.7919219 35.7918218,73 38.0023695,73 L40.9976305,73 C43.2080781,73 45,74.7918218 45,77.0023695 L45,79.9976305 C45,82.2080781 43.2081782,84 40.9976305,84 L38.0023695,84 C35.7919219,84 34,82.2081782 34,79.9976305 L34,77.0023695 Z" fill="#FFFFFF"></path>
    </g>
</svg>