<?xml version="1.0" encoding="UTF-8" standalone="no"?>
<svg width="100px" height="100px" viewBox="0 0 100 100" version="1.1" xmlns="http://www.w3.org/2000/svg" xmlns:xlink="http://www.w3.org/1999/xlink">
    <g stroke="none" stroke-width="1" fill="none" fill-rule="evenodd">
        <path d="M100,88 C100,94.6 94.6,100 88,100 L12,100 C5.4,100 0,94.6 0,88 L0,12 C0,5.4 5.4,0 12,0 L88,0 C94.6,0 100,5.4 100,12 L100,88 L100,88 Z" id="Shape" fill="#a094ed"></path>
        <path d="m74 29h-48c-3.3 0-6 2.7-6 6v29c0 3.3 2.7 6 6 6h48c3.3 0 6-2.7 6-6v-29c0-3.3-2.7-6-6-6z m-25.4 34h-17.2c-1.9 0-3.4-2.1-3.4-4.1 0.1-3 3.2-4.8 6.5-6.3 2.3-1 2.6-1.9 2.6-2.9s-0.6-1.9-1.4-2.6c-1.3-1.2-2.1-3-2.1-5 0-3.8 2.3-7 6.3-7s6.3 3.2 6.3 7c0 2-0.7 3.8-2.1 5-0.8 0.7-1.4 1.6-1.4 2.6s0.3 1.9 2.6 2.8c3.3 1.4 6.4 3.4 6.5 6.4 0.2 2-1.3 4.1-3.2 4.1z m23.4-7c0 1.1-0.9 2-2 2h-9c-1.1 0-2-0.9-2-2v-3c0-1.1 0.9-2 2-2h9c1.1 0 2 0.9 2 2v3z m0-11c0 1.1-0.9 2-2 2h-15c-1.1 0-2-0.9-2-2v-3c0-1.1 0.9-2 2-2h15c1.1 0 2 0.9 2 2v3z" fill="#fff"></path>
    </g>
</svg>