<?xml version="1.0" encoding="UTF-8" standalone="no"?>
<svg width="120px" height="120px" viewBox="0 0 120 120" version="1.1" xmlns="http://www.w3.org/2000/svg" xmlns:xlink="http://www.w3.org/1999/xlink">
    <g stroke="none" stroke-width="1" fill="none" fill-rule="evenodd">
        <path d="M120,108 C120,114.6 114.6,120 108,120 L12,120 C5.4,120 0,114.6 0,108 L0,12 C0,5.4 5.4,0 12,0 L108,0 C114.6,0 120,5.4 120,12 L120,108 L120,108 Z" id="Shape" fill="#59BCAB"></path>
        <path d="M91.936202,20 L47.6248812,20 C43.0211076,20 38.9928058,23.3272727 38.9928058,27.7636364 L38.9928058,29.4272727 C38.9928058,29.9818182 39.5682775,30.5363636 40.7192208,30.5363636 L80.426768,30.5363636 C85.0305416,30.5363636 89.0588435,34.4181818 89.0588435,38.8545455 L89.0588435,79.8909091 C89.0588435,80.4454545 89.6343152,81 90.2097869,81 C95.3890322,81 99.9928058,77.1181818 99.9928058,72.1272727 L99.9928058,27.7636364 C99.9928058,23.3272727 96.5399756,20 91.936202,20 L91.936202,20 Z M28,39 C23.4285714,39 20,42.3272727 20,46.7636364 L20,92.2363636 C20,96.6727273 23.4285714,100 28,100 L72,100 C76.5714286,100 80,96.6727273 80,92.2363636 L80,46.7636364 C80,42.3272727 76.5714286,39 72,39 L28,39 Z M44,69.0016655 C44,67.3438914 45.3431234,66 47.0079301,66 L66.9920699,66 C68.6533038,66 70,67.3390201 70,69.0016655 L70,70.9983345 C70,72.6561086 68.6568766,74 66.9920699,74 L47.0079301,74 C45.3466962,74 44,72.6609799 44,70.9983345 L44,69.0016655 Z M30,69.0016655 C30,67.3438914 31.3390201,66 33.0016655,66 L34.9983345,66 C36.6561086,66 38,67.3390201 38,69.0016655 L38,70.9983345 C38,72.6561086 36.6609799,74 34.9983345,74 L33.0016655,74 C31.3438914,74 30,72.6609799 30,70.9983345 L30,69.0016655 Z M44,54.0016655 C44,52.3438914 45.3431234,51 47.0079301,51 L66.9920699,51 C68.6533038,51 70,52.3390201 70,54.0016655 L70,55.9983345 C70,57.6561086 68.6568766,59 66.9920699,59 L47.0079301,59 C45.3466962,59 44,57.6609799 44,55.9983345 L44,54.0016655 Z M30,54.0016655 C30,52.3438914 31.3390201,51 33.0016655,51 L34.9983345,51 C36.6561086,51 38,52.3390201 38,54.0016655 L38,55.9983345 C38,57.6561086 36.6609799,59 34.9983345,59 L33.0016655,59 C31.3438914,59 30,57.6609799 30,55.9983345 L30,54.0016655 Z M44,84.0016655 C44,82.3438914 45.3431234,81 47.0079301,81 L66.9920699,81 C68.6533038,81 70,82.3390201 70,84.0016655 L70,85.9983345 C70,87.6561086 68.6568766,89 66.9920699,89 L47.0079301,89 C45.3466962,89 44,87.6609799 44,85.9983345 L44,84.0016655 Z M30,84.0016655 C30,82.3438914 31.3390201,81 33.0016655,81 L34.9983345,81 C36.6561086,81 38,82.3390201 38,84.0016655 L38,85.9983345 C38,87.6561086 36.6609799,89 34.9983345,89 L33.0016655,89 C31.3438914,89 30,87.6609799 30,85.9983345 L30,84.0016655 Z" fill="#FFFFFF"></path>
    </g>
</svg>