<?xml version="1.0" encoding="UTF-8" standalone="no"?>
<svg width="100" height="100" viewBox="0 0 100 100" version="1.1" xmlns="http://www.w3.org/2000/svg" xmlns:xlink="http://www.w3.org/1999/xlink">
	<g stroke="none" stroke-width="1" fill="none" fill-rule="evenodd">
		<path d="M100,88 C100,94.6 94.6,100 88,100 L12,100 C5.4,100 0,94.6 0,88 L0,12 C0,5.4 5.4,0 12,0 L88,0 C94.6,0 100,5.4 100,12 L100,88 L100,88 Z" id="Shape" fill="#f88962"></path>
    	<circle fill="#fff" cx="50" cy="29" r="9"></circle>
        <path fill="#fff" d="m78 44h-56c-2 0-2.8 2.5-1.1 3.6l14.6 9.4c0.7 0.5 1.1 1.4 0.8 2.2l-5.5 18.3c-0.6 2 2 3.4 3.5 1.9l14.2-15c0.8-0.9 2.2-0.9 3 0l14.2 15c1.4 1.5 4 0.1 3.5-1.9l-5.5-18.3c-0.2-0.8 0.1-1.7 0.8-2.2l14.6-9.4c1.7-1.1 0.9-3.6-1.1-3.6z"></path>
	</g>
</svg>