<?xml version="1.0" encoding="UTF-8" standalone="no"?>
<svg width="120px" height="120px" viewBox="0 0 120 120" version="1.1" xmlns="http://www.w3.org/2000/svg" xmlns:xlink="http://www.w3.org/1999/xlink" xmlns:sketch="http://www.bohemiancoding.com/sketch/ns">
    <g id="Page-1" stroke="none" stroke-width="1" fill="none" fill-rule="evenodd" sketch:type="MSPage">
        <g id="Imported-Layers" sketch:type="MSLayerGroup">
            <path d="M120,109.834711 C120,115.312066 115.523,119.752066 110,119.752066 L10,119.752066 C4.477,119.752066 0,115.312066 0,109.834711 L0,10.661157 C0,5.18380165 4.477,0.743801653 10,0.743801653 L110,0.743801653 C115.523,0.743801653 120,5.18380165 120,10.661157 L120,109.834711" id="Fill-1" fill="#EF6E64" sketch:type="MSShapeGroup"></path>
            <path d="M31.5,87.5206612 L92.5,40.4112397 L92,87.5206612 L31.5,87.5206612" id="Fill-2" fill="#CE4741" sketch:type="MSShapeGroup"></path>
            <path d="M94.335,85.2793388 L34.642,85.2793388 L34.642,30.5791736 C34.642,28.642314 33.044,27.0585124 31.092,27.0585124 L27.542,27.0585124 C25.591,27.0585124 23.993,28.642314 23.993,30.5791736 L23.993,92.3206612 C23.993,94.2555372 25.59,95.8403306 27.543,95.8403306 L94.335,95.8403306 C96.286,95.8403306 97.884,94.2555372 97.884,92.3206612 L97.884,88.8 C97.884,86.8641322 96.286,85.2793388 94.335,85.2793388" id="Fill-3" fill="#FFFFFF" sketch:type="MSShapeGroup"></path>
        </g>
    </g>
</svg>