<?xml version="1.0" encoding="UTF-8" standalone="no"?>
    <svg width="100px" height="100px" viewBox="0 0 100 100" version="1.1" xmlns="http://www.w3.org/2000/svg" xmlns:xlink="http://www.w3.org/1999/xlink">
        <g stroke="none" stroke-width="1" fill="none" fill-rule="evenodd">
            <path d="M100,88 C100,94.6 94.6,100 88,100 L12,100 C5.4,100 0,94.6 0,88 L0,12 C0,5.4 5.4,0 12,0 L88,0 C94.6,0 100,5.4 100,12 L100,88 L100,88 Z" id="Shape" fill="#e9696e"></path>
            <g transform="scale(4.167)">
                <path d="M11.2 15.2l-2.8 4-.7-1.9H5.8l2.4-3.4c.5.3 1 .4 1.4.5h.3s.2.1.2.2c.3.2.7.5 1.1.6zm4.6-1.3c-.5.3-1 .4-1.4.5h-.3c-.1 0-.2.1-.3.2-.2.2-.6.5-1 .6l2.8 4 .7-1.9h1.9l-2.4-3.4zM12 7.7c-.9 0-1.7.7-1.7 1.7S11.1 11 12 11s1.7-.7 1.7-1.6-.8-1.7-1.7-1.7zm4.6 1.7c0 .5-.7 1-.9 1.5-.2.5-.1 1.3-.5 1.7-.4.4-1.1.3-1.7.5-.5.2-.9.8-1.5.8s-1-.6-1.5-.8c-.6-.2-1.3-.1-1.7-.5-.4-.4-.3-1.2-.5-1.7s-.9-1-.9-1.5c0-.6.7-1.1.9-1.6.2-.5.1-1.3.5-1.7.4-.3 1.1-.2 1.7-.5.5-.2.9-.8 1.5-.8s1 .6 1.5.8c.6.3 1.3.1 1.7.5.4.4.3 1.2.5 1.7s.9 1 .9 1.6zm-1.5 0c0-1.8-1.4-3.2-3.1-3.2S8.9 7.6 8.9 9.4s1.4 3.1 3.1 3.1 3.1-1.4 3.1-3.1z" fill="#fff"/>
            </g>
        </g>
    </svg>