<?xml version="1.0" encoding="UTF-8" standalone="no"?>
<svg width="120px" height="120px" viewBox="0 0 120 120" version="1.1" xmlns="http://www.w3.org/2000/svg" xmlns:xlink="http://www.w3.org/1999/xlink">
    <g stroke="none" stroke-width="1" fill="none" fill-rule="evenodd">
        <path d="M120,108 C120,114.6 114.6,120 108,120 L12,120 C5.4,120 0,114.6 0,108 L0,12 C0,5.4 5.4,0 12,0 L108,0 C114.6,0 120,5.4 120,12 L120,108 L120,108 Z" id="Shape" fill="#62B7ED"></path>
        <path d="M58.961039,88.3896104 C58.4415584,88.3896104 57.4025974,88.3896104 56.8831169,87.8701299 C55.8441558,87.3506494 55.3246753,86.3116883 54.8051948,85.2727273 L45.4545455,46.3116883 L37.1428571,64.4935065 C36.6233766,66.0519481 35.0649351,67.0909091 34.025974,67.0909091 L22.5974026,67.0909091 C21.038961,67.0909091 20,66.0519481 20,64.4935065 L20,61.8961039 C20,60.8571429 21.038961,59.8181818 22.5974026,59.8181818 L31.4285714,59.8181818 L42.8571429,33.3246753 C43.3766234,31.7662338 44.9350649,30.7272727 46.4935065,30.7272727 C48.0519481,31.2467532 49.6103896,32.2857143 50.1298701,33.8441558 L60,73.3246753 L72.4675325,44.2337662 C73.5064935,42.6753247 75.0649351,42.1558442 76.6233766,42.1558442 C77.6623377,42.1558442 79.2207792,43.1948052 79.7402597,44.7532468 L85.974026,59.8181818 L97.4025974,59.8181818 C98.961039,59.8181818 100,60.8571429 100,61.8961039 L100,64.4935065 C100,66.0519481 98.961039,67.0909091 97.4025974,67.0909091 L83.8961039,67.0909091 C82.3376623,67.0909091 80.7792208,66.0519481 80.2597403,65.012987 L76.1038961,55.1428571 L62.0779221,85.7922078 C61.5584416,87.3506494 60,88.3896104 58.961039,88.3896104 L58.961039,88.3896104 Z" fill="#FFFFFF"></path>
    </g>
</svg>