<?xml version="1.0" encoding="UTF-8" standalone="no"?>
<svg width="100px" height="100px" viewBox="0 0 100 100" version="1.1" xmlns="http://www.w3.org/2000/svg" xmlns:xlink="http://www.w3.org/1999/xlink">
	<g stroke="none" stroke-width="1" fill="none" fill-rule="evenodd">
		    <path d="M100,88 C100,94.6 94.6,100 88,100 L12,100 C5.4,100 0,94.6 0,88 L0,12 C0,5.4 5.4,0 12,0 L88,0 C94.6,0 100,5.4 100,12 L100,88 L100,88 Z" id="Shape" fill="#E46FBE"></path>
       		<path d="m79.8 27.3c-0.7-3.7-3.8-6.7-7.6-7.2-2.7-0.4-5.2 0.5-7.1 2-0.6 0.5-0.5 1.3 0.2 1.7 4.6 2.4 8.5 5.9 11.5 10.1 0.4 0.6 1.3 0.6 1.7 0 1.3-1.9 1.8-4.2 1.3-6.6z m-45.2-3.5c0.6-0.3 0.7-1.2 0.2-1.7-1.9-1.6-4.4-2.4-7.1-2-3.8 0.5-6.9 3.5-7.6 7.2-0.4 2.4 0.1 4.7 1.3 6.5 0.4 0.6 1.3 0.6 1.7 0 3-4.1 6.9-7.6 11.5-10z m15.4 2.2c-14.9 0-27 12.1-27 27 0 6 2 11.6 5.3 16l-4.1 4.1c-1.6 1.6-1.6 4.1 0 5.7 0.8 0.8 1.8 1.2 2.8 1.2s2-0.4 2.8-1.2l4.1-4.1c4.5 3.3 10.1 5.3 16.1 5.3s11.6-2 16-5.3l4.1 4.1c0.9 0.8 1.9 1.2 2.9 1.2s2-0.4 2.8-1.2c1.6-1.6 1.6-4.1 0-5.7l-4.1-4.1c3.3-4.4 5.3-10 5.3-16 0-14.9-12.1-27-27-27z m-19 27c0-10.5 8.5-19 19-19s19 8.5 19 19-8.5 19-19 19-19-8.5-19-19z m22-1.2v-7.8c0-1.7-1.3-3-3-3s-3 1.3-3 3v9c0 0.8 0.3 1.6 0.9 2.1l7 7c0.6 0.6 1.4 0.9 2.1 0.9s1.5-0.3 2.1-0.9c1.2-1.2 1.2-3.1 0-4.2l-6.1-6.1z" fill="#fff"></path>
	</g>
</svg>